P3
16 16
255
255 102 0 255 102 0 255 102 0 255 102 0 255 102 0 255 102 0 255 102 0 
255 102 0 255 102 0 255 102 0 255 102 0 255 102 0 255 102 0 255 102 0 
255 102 0 255 102 0 255 102 0 0 51 102 0 51 102 0 51 102 0 51 102 0 51 102 
0 51 102 0 51 102 0 51 102 0 51 102 0 51 102 0 51 102 0 51 102 0 51 102 
0 51 102 255 102 0 255 102 0 0 51 102 0 51 102 0 51 102 255 255 255 
255 255 255 255 255 255 255 255 255 255 255 255 255 255 255 255 255 255 
255 255 255 0 51 102 0 51 102 0 51 102 255 102 0 255 102 0 0 51 102 0 51 102 
175 191 207 0 51 102 0 51 102 175 191 207 175 191 207 255 255 255 255 255 255 
175 191 207 0 51 102 0 51 102 0 51 102 0 51 102 255 102 0 255 102 0 0 51 102 
0 51 102 95 127 159 0 51 102 63 101 140 0 51 102 95 127 159 255 255 255 
175 191 207 0 51 102 0 51 102 0 51 102 0 51 102 0 51 102 255 102 0 255 102 0 
0 51 102 0 51 102 0 51 102 95 127 159 0 51 102 175 191 207 95 127 159 
255 255 255 95 127 159 0 51 102 0 51 102 0 51 102 0 51 102 0 51 102 255 102 0 
255 102 0 0 51 102 0 51 102 0 51 102 0 51 102 0 51 102 175 191 207 95 127 159 
255 255 255 95 127 159 0 51 102 0 51 102 0 51 102 0 51 102 0 51 102 255 102 0 
255 102 0 0 51 102 0 51 102 0 51 102 0 51 102 0 51 102 175 191 207 95 127 159 
255 255 255 95 127 159 0 51 102 0 51 102 0 51 102 0 51 102 0 51 102 255 102 0 
255 102 0 0 51 102 0 51 102 0 51 102 0 51 102 0 51 102 175 191 207 95 127 159 
255 255 255 95 127 159 0 51 102 0 51 102 0 51 102 0 51 102 0 51 102 255 102 0 
255 102 0 0 51 102 0 51 102 0 51 102 0 51 102 0 51 102 175 191 207 95 127 159 
255 255 255 95 127 159 0 51 102 0 51 102 0 51 102 0 51 102 0 51 102 255 102 0 
255 102 0 0 51 102 0 51 102 0 51 102 0 51 102 0 51 102 175 191 207 95 127 159 
255 255 255 175 191 207 0 51 102 0 51 102 0 51 102 0 51 102 0 51 102 255 102 0 
255 102 0 0 51 102 0 51 102 0 51 102 0 51 102 0 51 102 0 51 102 175 191 207 
255 255 255 255 255 255 175 191 207 0 51 102 0 51 102 0 51 102 0 51 102 
255 102 0 255 102 0 0 51 102 0 51 102 0 51 102 0 51 102 255 255 255 
255 255 255 255 255 255 255 255 255 255 255 255 255 255 255 255 255 255 
0 51 102 0 51 102 0 51 102 255 102 0 255 102 0 0 51 102 0 51 102 0 51 102 
0 51 102 0 51 102 0 51 102 0 51 102 0 51 102 0 51 102 0 51 102 0 51 102 
0 51 102 0 51 102 0 51 102 255 102 0 255 102 0 0 51 102 0 51 102 0 51 102 
0 51 102 0 51 102 0 51 102 0 51 102 0 51 102 0 51 102 0 51 102 0 51 102 
0 51 102 0 51 102 0 51 102 255 102 0 255 102 0 255 102 0 255 102 0 255 102 0 
255 102 0 255 102 0 255 102 0 255 102 0 255 102 0 255 102 0 255 102 0 
255 102 0 255 102 0 255 102 0 255 102 0 255 102 0 
