P2
16 16
255
136 136 136 136 136 136 136 136 136 136 136 136 136 136 136 136 136 42 42 42 
42 42 42 42 42 42 42 42 42 42 42 136 136 42 42 42 255 255 255 255 255 255 255 
255 42 42 42 136 136 42 42 188 42 42 188 188 255 255 188 42 42 42 42 136 136 
42 42 121 42 94 42 121 255 188 42 42 42 42 42 136 136 42 42 42 121 42 188 121 
255 121 42 42 42 42 42 136 136 42 42 42 42 42 188 121 255 121 42 42 42 42 42 
136 136 42 42 42 42 42 188 121 255 121 42 42 42 42 42 136 136 42 42 42 42 42 
188 121 255 121 42 42 42 42 42 136 136 42 42 42 42 42 188 121 255 121 42 42 42 
42 42 136 136 42 42 42 42 42 188 121 255 188 42 42 42 42 42 136 136 42 42 42 
42 42 42 188 255 255 188 42 42 42 42 136 136 42 42 42 42 255 255 255 255 255 
255 255 42 42 42 136 136 42 42 42 42 42 42 42 42 42 42 42 42 42 42 136 136 42 
42 42 42 42 42 42 42 42 42 42 42 42 42 136 136 136 136 136 136 136 136 136 136 
136 136 136 136 136 136 136 
